<?xml version="1.0" encoding="UTF-8"?>
<!DOCTYPE svg PUBLIC "-//W3C//DTD SVG 1.1//EN" "http://www.w3.org/Graphics/SVG/1.1/DTD/svg11.dtd">
<!-- Creator: CorelDRAW 2020 (64 Bit) -->
<svg xmlns="http://www.w3.org/2000/svg" xml:space="preserve" width="0.84666cm" height="0.25398cm" version="1.1" style="shape-rendering:geometricPrecision; text-rendering:geometricPrecision; image-rendering:optimizeQuality; fill-rule:evenodd; clip-rule:evenodd"
viewBox="0 0 846.66 253.98"
 xmlns:xlink="http://www.w3.org/1999/xlink"
 xmlns:xodm="http://www.corel.com/coreldraw/odm/2003">
 <defs>
  <style type="text/css">
   <![CDATA[
    .fil0 {fill:none}
    .fil1 {fill:#1A1A1A}
    .fil2 {fill:#1A1A1A;fill-rule:nonzero}
   ]]>
  </style>
 </defs>
 <g id="Camada_x0020_1">
  <metadata id="CorelCorpID_0Corel-Layer"/>
  <rect class="fil0" y="-0" width="846.66" height="253.99"/>
  <g id="_2350959284736">
   <path class="fil1" d="M16.5 58.55l105.29 0 24.72 24.73 -9.88 0 0 86.61 -20.51 0 0 -86.74 -30.78 0 0 86.74 -20.49 0 0 -86.61 -30.77 0 0 86.61c0,7.79 2.59,14.73 7.78,20.85 6.6,7.79 14.91,11.68 24.92,11.68l68.07 0c7.67,0 14.55,-2.54 20.7,-7.6 7.88,-6.49 11.83,-14.8 11.83,-24.93l0 -65.74 17.58 17.58 0 105.28 -168.46 0 0 -168.46z"/>
   <polygon class="fil1" points="121.79,26.97 184.96,26.97 184.96,90.14 "/>
   <g>
    <polygon class="fil2" points="755.55,112.44 710.47,112.44 710.47,83.08 755.55,83.08 755.55,82.92 784.92,82.92 784.92,83.08 830.16,83.08 830.16,112.44 784.92,112.44 784.92,202.76 755.55,202.76 "/>
    <path class="fil2" d="M698.72 202.6l-83.17 0c-9.1,0 -16.55,-3.55 -22.38,-10.62 -4.55,-5.52 -6.82,-11.7 -6.82,-18.58l0 -61.12c0,-8.99 3.49,-16.44 10.48,-22.37 5.5,-4.66 11.73,-6.99 18.72,-6.99l81.6 0 0 27.63 -81.6 0 0 18.39 80 0 0 27.63 -80 0 0 18.43 83.17 0 0 27.6z"/>
    <path class="fil2" d="M459.05 82.92l88.1 0c8.99,0 16.44,3.54 22.37,10.64 4.66,5.5 6.99,11.73 6.99,18.72l0 10.16c-0.1,7.61 -2.81,14.28 -8.1,19.99 5.39,6.37 8.1,13.3 8.1,20.81l0 10.32c0,8.99 -3.55,16.44 -10.64,22.38 -5.5,4.55 -11.73,6.82 -18.72,6.82l-89.7 0 0 -73.82 89.7 0 0 -18.39 -88.1 0 0 -27.63zm27.63 92.21l60.47 0 0 -18.39 -60.47 0 0 18.39z"/>
    <path class="fil2" d="M329.37 110.55l0 -27.63 87.61 0c8.99,0 16.47,3.54 22.4,10.64 4.55,5.5 6.8,11.73 6.8,18.72l0 18.75c0,8.99 -3.47,16.44 -10.46,22.37 -5.49,4.66 -11.75,6.97 -18.74,6.97l29.37 42.39 -35.55 0 -29.36 -42.39 -24.44 0 0 42.39 -29.23 0 0 -70 89.21 0 0 -22.21 -87.61 0z"/>
    <path class="fil2" d="M314.9 202.6l-83.16 0c-9.11,0 -16.56,-3.55 -22.38,-10.62 -4.55,-5.52 -6.83,-11.7 -6.83,-18.58l0 -61.12c0,-8.99 3.5,-16.44 10.49,-22.37 5.5,-4.66 11.73,-6.99 18.72,-6.99l81.59 0 0 27.63 -81.59 0 0 18.39 79.99 0 0 27.63 -79.99 0 0 18.43 83.16 0 0 27.6z"/>
   </g>
  </g>
 </g>
</svg>
